# xmcd
#
# Track frame offsets:
#	150
#	23227
#	41212
#	64350
#
# Disc length: 1096 seconds
#
# Revision: 1
# Processed by: cddbd v1.5PL3 Copyright (c) Steve Scherf et al.
# Submitted via: CDex 1.50Beta5
#
DISCID=35044604
DTITLE=大賀埜々 - "Orange"
DYEAR=1900
DGENRE=Pop
TTITLE0=Orange
TTITLE1=Little Bit Of Love
TTITLE2=Orange (Karaoke)
TTITLE3=Little Bit Of Love (Karaoke)
EXTD=
EXTT0=
EXTT1=
EXTT2=
EXTT3=
PLAYORDER=
